<svg id="Icono-administrar_tu_negocio" data-name="Icono-administrar tu negocio" xmlns="http://www.w3.org/2000/svg" width="24" height="24" viewBox="0 0 24 24">
  <rect id="Rectángulo_13176" data-name="Rectángulo 13176" width="24" height="24" fill="none"/>
  <g id="icono-shopping-bag-ppal" transform="translate(2 1)">
    <path id="Trazado_28280" data-name="Trazado 28280" d="M423.016,563.172h-14a3,3,0,0,1-3-3v-14a1,1,0,0,1,.2-.6l3-4a1,1,0,0,1,.8-.4h12a1,1,0,0,1,.8.4l3,4a1,1,0,0,1,.2.6v14a3,3,0,0,1-3,3m-15-16.667v13.667a1,1,0,0,0,1,1h14a1,1,0,0,0,1-1V546.505l-2.5-3.333h-11Z" transform="translate(-406.016 -541.172)" fill="#187385"/>
    <path id="Trazado_28281" data-name="Trazado 28281" d="M425.016,547.172h-18a1,1,0,0,1,0-2h18a1,1,0,0,1,0,2" transform="translate(-406.016 -541.172)" fill="#187385"/>
    <path id="Trazado_28282" data-name="Trazado 28282" d="M416.016,555.172a5.006,5.006,0,0,1-5-5,1,1,0,0,1,2,0,3,3,0,0,0,6,0,1,1,0,0,1,2,0,5.006,5.006,0,0,1-5,5" transform="translate(-406.016 -541.172)" fill="#187385"/>
  </g>
</svg>
