<svg id="Icono-television" xmlns="http://www.w3.org/2000/svg" width="24" height="24" viewBox="0 0 24 24">
  <rect id="Rectángulo_13173" data-name="Rectángulo 13173" width="24" height="24" fill="none"/>
  <g id="icono-monitor-ppal" transform="translate(1 2)">
    <path id="Trazado_28189" data-name="Trazado 28189" d="M251.016,393.982h-16a3,3,0,0,0-3,3v10a3,3,0,0,0,3,3h7v2h-3a1,1,0,0,0,0,2h8a1,1,0,1,0,0-2h-3v-2h7a3,3,0,0,0,3-3v-10a3,3,0,0,0-3-3m1,13a1,1,0,0,1-1,1h-16a1,1,0,0,1-1-1v-10a1,1,0,0,1,1-1h16a1,1,0,0,1,1,1Z" transform="translate(-232.016 -393.982)" fill="#187385"/>
  </g>
</svg>
