<svg id="Icono-negocio_digital" data-name="Icono-negocio digital" xmlns="http://www.w3.org/2000/svg" width="24" height="24" viewBox="0 0 24 24">
  <rect id="Rectángulo_13175" data-name="Rectángulo 13175" width="24" height="24" fill="none"/>
  <g id="icono-at-sign-ppal" transform="translate(1 1)">
    <path id="Trazado_28462" data-name="Trazado 28462" d="M873.471,44a11,11,0,1,0,6.687,19.733l.042-.032a1,1,0,0,0-1.258-1.555A9,9,0,1,1,882.471,55v1a2,2,0,0,1-4,0V51a1,1,0,0,0-2,0v.023a5,5,0,1,0,.731,7.271A3.995,3.995,0,0,0,884.471,56V55a11,11,0,0,0-11-11m0,14a3,3,0,1,1,3-3,3,3,0,0,1-3,3" transform="translate(-862.471 -44)" fill="#187385"/>
  </g>
</svg>
