<svg id="Icono-soluciones_moviles" data-name="Icono-soluciones moviles" xmlns="http://www.w3.org/2000/svg" width="24" height="24" viewBox="0 0 24 24">
  <rect id="Rectángulo_13171" data-name="Rectángulo 13171" width="24" height="24" fill="none"/>
  <g id="Grupo_26553" data-name="Grupo 26553" transform="translate(15450 -1441.502)">
    <path id="Trazado_28346" data-name="Trazado 28346" d="M113.016,542.172h-12a3,3,0,0,0-3,3v16a3,3,0,0,0,3,3h12a3,3,0,0,0,3-3v-16a3,3,0,0,0-3-3m1,19a1,1,0,0,1-1,1h-12a1,1,0,0,1-1-1v-16a1,1,0,0,1,1-1h12a1,1,0,0,1,1,1Z" transform="translate(-15545.016 900.33)" fill="#187385"/>
    <path id="Trazado_28347" data-name="Trazado 28347" d="M107.023,558.172h-.01a1.005,1.005,0,1,0,.01,0" transform="translate(-15545.016 900.33)" fill="#187385"/>
  </g>
</svg>
