<svg id="Icono-iot" xmlns="http://www.w3.org/2000/svg" width="24" height="24" viewBox="0 0 24 24">
  <rect id="Rectángulo_13174" data-name="Rectángulo 13174" width="24" height="24" fill="none"/>
  <g id="icono-radio-ppal" transform="translate(1 4)">
    <path id="Trazado_28245" data-name="Trazado 28245" d="M506.59,454.726a3,3,0,1,1,3-3,3,3,0,0,1-3,3m0-4a1,1,0,1,0,1,1,1,1,0,0,0-1-1" transform="translate(-495.597 -443.648)" fill="#187385"/>
    <path id="Trazado_28246" data-name="Trazado 28246" d="M513.66,459.8a1,1,0,0,1-.707-1.707,9.014,9.014,0,0,0,0-12.726,1,1,0,0,1,1.39-1.439l.024.025a11.013,11.013,0,0,1,0,15.554,1,1,0,0,1-.707.293m-14.141,0a1,1,0,0,1-.707-.293,11.013,11.013,0,0,1,0-15.554,1,1,0,1,1,1.439,1.389c-.008.009-.017.017-.025.025a9.012,9.012,0,0,0,0,12.726,1,1,0,0,1-.707,1.707m11.309-2.819a1,1,0,0,1-.893-1.447,1.024,1.024,0,0,1,.262-.329,5.008,5.008,0,0,0-.075-7.006,1,1,0,1,1,1.415-1.416,7,7,0,0,1,.016,9.888,1,1,0,0,1-.725.31m-8.479-.01a1,1,0,0,1-.707-.293,7.007,7.007,0,0,1-.027-9.876.235.235,0,0,1,.027-.028,1,1,0,0,1,1.478,1.343.971.971,0,0,1-.068.076,5.006,5.006,0,0,0,0,7.071,1,1,0,0,1-.707,1.707" transform="translate(-495.597 -443.648)" fill="#187385"/>
  </g>
</svg>
