<svg xmlns="http://www.w3.org/2000/svg" width="20" height="20" viewBox="0 0 20 20">
  <g id="icono-trello-ppal" transform="translate(0)">
    <path id="Trazado_28367" data-name="Trazado 28367" d="M755.016,563.4h-14a3,3,0,0,1-3-3v-14a3,3,0,0,1,3-3h14a3,3,0,0,1,3,3v14a3,3,0,0,1-3,3m-14-18a1,1,0,0,0-1,1v14a1,1,0,0,0,1,1h14a1,1,0,0,0,1-1v-14a1,1,0,0,0-1-1Z" transform="translate(-738.016 -543.4)" fill="#187385"/>
    <path id="Trazado_28368" data-name="Trazado 28368" d="M746.016,558.4h-3a1,1,0,0,1-1-1v-9a1,1,0,0,1,1-1h3a1,1,0,0,1,1,1v9a1,1,0,0,1-1,1m-2-2h1v-7h-1Z" transform="translate(-738.016 -543.4)" fill="#187385"/>
    <path id="Trazado_28369" data-name="Trazado 28369" d="M753.016,554.4h-3a1,1,0,0,1-1-1v-5a1,1,0,0,1,1-1h3a1,1,0,0,1,1,1v5a1,1,0,0,1-1,1m-2-2h1v-3h-1Z" transform="translate(-738.016 -543.4)" fill="#187385"/>
  </g>
</svg>
