<svg id="icono-globe-ppal" xmlns="http://www.w3.org/2000/svg" width="22" height="22" viewBox="0 0 22 22">
  <path id="Trazado_28096" data-name="Trazado 28096" d="M151.016,293l-.042,0h-.005a10.579,10.579,0,1,0,.047,0m8.941,10h-3.988a15.416,15.416,0,0,0-2.632-7.684,9.009,9.009,0,0,1,6.62,7.684m-11.9,2h5.917a13.362,13.362,0,0,1-2.959,7.451A13.368,13.368,0,0,1,148.058,305m0-2a13.362,13.362,0,0,1,2.958-7.449A13.371,13.371,0,0,1,153.975,303Zm.64-7.687A15.431,15.431,0,0,0,146.063,303h-3.988a9,9,0,0,1,6.623-7.687M142.075,305h3.988a15.43,15.43,0,0,0,2.634,7.687A9,9,0,0,1,142.075,305m11.261,7.687A15.43,15.43,0,0,0,155.97,305h3.988a9,9,0,0,1-6.622,7.687" transform="translate(-140.016 -293)" fill="#187385"/>
</svg>
