<svg id="icono-phone-forwarded-ppal" xmlns="http://www.w3.org/2000/svg" width="22.887" height="22.918" viewBox="0 0 22.887 22.918">
  <path id="Trazado_28215" data-name="Trazado 28215" d="M752.79,401.961a1,1,0,0,1-.707-1.707l3.293-3.293-3.293-3.293a1,1,0,0,1,1.414-1.414l4,4a1,1,0,0,1,0,1.414l-4,4a1,1,0,0,1-.707.293" transform="translate(-734.903 -391.974)" fill="#187385"/>
  <path id="Trazado_28216" data-name="Trazado 28216" d="M756.79,397.961h-8a1,1,0,0,1,0-2h8a1,1,0,0,1,0,2" transform="translate(-734.903 -391.974)" fill="#187385"/>
  <path id="Trazado_28217" data-name="Trazado 28217" d="M753.8,414.89a2.055,2.055,0,0,1-.286-.013,20.91,20.91,0,0,1-9.081-3.227,20.614,20.614,0,0,1-6.3-6.3,20.887,20.887,0,0,1-3.22-9.1,3.007,3.007,0,0,1,2.715-3.273h0c.084-.008.177-.013.268-.013h3a3,3,0,0,1,2.991,2.581,11.95,11.95,0,0,0,.646,2.6,3.006,3.006,0,0,1-.675,3.162l-.722.72a15,15,0,0,0,4.586,4.586l.717-.716a3.009,3.009,0,0,1,3.168-.68,11.849,11.849,0,0,0,2.59.645,3,3,0,0,1,2.589,3.033v2.988a3,3,0,0,1-2.987,3.009m-12.887-19.931H737.9a1.021,1.021,0,0,0-1,1.045c0,.016,0,.031,0,.046a18.892,18.892,0,0,0,2.913,8.216,18.64,18.64,0,0,0,5.7,5.7,18.912,18.912,0,0,0,8.2,2.919,1.016,1.016,0,0,0,1.069-.958v-3.072a1,1,0,0,0-.859-1.014,13.849,13.849,0,0,1-3.021-.754,1,1,0,0,0-1.056.225l-1.267,1.265a1,1,0,0,1-1.2.162,16.992,16.992,0,0,1-6.375-6.375,1,1,0,0,1,.162-1.2l1.27-1.269a1,1,0,0,0,.221-1.051,13.89,13.89,0,0,1-.755-3.032,1,1,0,0,0-.989-.851" transform="translate(-734.903 -391.974)" fill="#187385"/>
</svg>
