<svg id="icono-bar-chart-2-ppal" xmlns="http://www.w3.org/2000/svg" width="14" height="18" viewBox="0 0 14 18">
  <path id="Trazado_28467" data-name="Trazado 28467" d="M746.47,65a1,1,0,0,1-1-1V54a1,1,0,0,1,2,0V64a1,1,0,0,1-1,1" transform="translate(-739.47 -47)" fill="#187385"/>
  <path id="Trazado_28468" data-name="Trazado 28468" d="M752.47,65a1,1,0,0,1-1-1V48a1,1,0,0,1,2,0V64a1,1,0,0,1-1,1" transform="translate(-739.47 -47)" fill="#187385"/>
  <path id="Trazado_28469" data-name="Trazado 28469" d="M740.47,65a1,1,0,0,1-1-1V60a1,1,0,0,1,2,0v4a1,1,0,0,1-1,1" transform="translate(-739.47 -47)" fill="#187385"/>
</svg>
